<svg width="1400" height="900" viewBox="0 0 1400 900" fill="none" xmlns="http://www.w3.org/2000/svg">
  <defs>
    <linearGradient id="bg" x1="120" y1="80" x2="1230" y2="860" gradientUnits="userSpaceOnUse">
      <stop stop-color="#181A21"/>
      <stop offset="1" stop-color="#0B0C10"/>
    </linearGradient>
    <linearGradient id="gold" x1="0" y1="0" x2="1" y2="1">
      <stop stop-color="#E1C38F"/>
      <stop offset="1" stop-color="#C5A059"/>
    </linearGradient>
  </defs>
  <rect width="1400" height="900" rx="22" fill="url(#bg)"/>
  <rect x="36" y="36" width="1328" height="828" rx="18" stroke="#C5A059" stroke-opacity="0.35"/>
  <rect x="72" y="88" width="412" height="48" rx="10" fill="#11131A"/>
  <rect x="90" y="104" width="180" height="16" rx="8" fill="url(#gold)" fill-opacity="0.65"/>
  <rect x="72" y="170" width="610" height="300" rx="14" fill="#11131A"/>
  <rect x="98" y="200" width="260" height="18" rx="9" fill="#E1C38F" fill-opacity="0.5"/>
  <rect x="98" y="238" width="548" height="1" fill="#C5A059" fill-opacity="0.35"/>
  <rect x="98" y="264" width="500" height="1" fill="#C5A059" fill-opacity="0.2"/>
  <rect x="98" y="290" width="420" height="1" fill="#C5A059" fill-opacity="0.2"/>
  <rect x="98" y="316" width="540" height="1" fill="#C5A059" fill-opacity="0.2"/>
  <rect x="98" y="342" width="380" height="1" fill="#C5A059" fill-opacity="0.2"/>
  <rect x="732" y="170" width="596" height="300" rx="14" fill="#11131A"/>
  <rect x="760" y="200" width="210" height="18" rx="9" fill="#E1C38F" fill-opacity="0.5"/>
  <rect x="760" y="238" width="520" height="204" rx="10" stroke="#C5A059" stroke-opacity="0.3"/>
  <path d="M780 402L890 308L1020 342L1140 256L1260 288" stroke="url(#gold)" stroke-width="3"/>
  <circle cx="890" cy="308" r="5" fill="#E1C38F"/>
  <circle cx="1140" cy="256" r="5" fill="#E1C38F"/>
  <rect x="72" y="516" width="1256" height="312" rx="14" fill="#11131A"/>
  <rect x="98" y="544" width="290" height="16" rx="8" fill="#E1C38F" fill-opacity="0.45"/>
  <rect x="98" y="580" width="1200" height="1" fill="#C5A059" fill-opacity="0.25"/>
  <rect x="98" y="618" width="1200" height="1" fill="#C5A059" fill-opacity="0.25"/>
  <rect x="98" y="656" width="1200" height="1" fill="#C5A059" fill-opacity="0.25"/>
  <rect x="98" y="694" width="1200" height="1" fill="#C5A059" fill-opacity="0.25"/>
</svg>
